<svg width="32" height="32" viewBox="0 0 32 32" fill="none" xmlns="http://www.w3.org/2000/svg">
<path d="M21.3334 22.6667V25.3333H2.66675V22.6667C2.66675 22.6667 2.66675 17.3333 12.0001 17.3333C21.3334 17.3333 21.3334 22.6667 21.3334 22.6667ZM16.6667 9.99999C16.6667 9.07701 16.3931 8.17476 15.8803 7.40733C15.3675 6.6399 14.6387 6.04176 13.7859 5.68855C12.9332 5.33534 11.9949 5.24293 11.0897 5.42299C10.1844 5.60306 9.35289 6.04751 8.70025 6.70016C8.0476 7.3528 7.60315 8.18432 7.42308 9.08957C7.24302 9.99481 7.33543 10.9331 7.68864 11.7858C8.04185 12.6386 8.63999 13.3674 9.40742 13.8802C10.1748 14.393 11.0771 14.6667 12.0001 14.6667C13.2378 14.6667 14.4247 14.175 15.2999 13.2998C16.1751 12.4247 16.6667 11.2377 16.6667 9.99999ZM21.2534 17.3333C22.0731 17.9677 22.7438 18.7739 23.2183 19.6953C23.6929 20.6168 23.9597 21.631 24.0001 22.6667V25.3333H29.3334V22.6667C29.3334 22.6667 29.3334 17.8267 21.2534 17.3333ZM20.0001 5.33332C19.0823 5.32821 18.1848 5.6026 17.4267 6.11999C18.2367 7.25164 18.6722 8.60837 18.6722 9.99999C18.6722 11.3916 18.2367 12.7483 17.4267 13.88C18.1848 14.3974 19.0823 14.6718 20.0001 14.6667C21.2378 14.6667 22.4247 14.175 23.2999 13.2998C24.1751 12.4247 24.6667 11.2377 24.6667 9.99999C24.6667 8.76231 24.1751 7.57533 23.2999 6.70016C22.4247 5.82499 21.2378 5.33332 20.0001 5.33332Z" fill="#FEFEFE"/>
</svg>
