<svg width="81" height="141" viewBox="0 0 81 141" fill="none" xmlns="http://www.w3.org/2000/svg">
<path d="M15.369 134.503V119.858C15.369 118.349 16.0248 117.008 17.0499 116.07H13.12C10.3015 116.07 8.00603 118.364 8.00603 121.212V135.857C8.00603 138.704 10.3015 141 13.12 141H57.6644C58.9895 141 60.1878 140.479 61.0975 139.647H20.4834C17.6645 139.647 15.369 137.351 15.369 134.503Z" fill="white"/>
<path d="M67.149 17.3156C67.2978 16.7276 67.544 16.1945 67.856 15.7177C67.5657 15.5102 67.2989 15.2739 66.9628 15.1255C66.2654 14.8343 65.568 14.6886 64.8707 14.6886C62.5461 14.6886 60.3959 16.2577 59.7857 18.6703L57.397 28.3636L57.5892 56.1077L67.149 17.3156Z" fill="#FFCC99"/>
<path d="M76.0404 52.4462C76.1672 52.236 76.3366 52.0793 76.4831 51.8925C75.5846 51.3429 74.5795 51.0392 73.5588 51.0392C72.7091 51.0392 71.8691 51.255 71.0909 51.6287L68.4857 64.912L76.0404 52.4462Z" fill="#FFCC99"/>
<path d="M26.2072 16.2124C26.2072 16.0667 26.1782 15.9211 26.1782 15.8057C26.1782 14.723 26.5504 13.731 27.1304 12.8846C25.9221 12.0355 24.3742 11.6797 22.8251 12.074C20.4714 12.6552 18.8151 14.7477 18.8151 17.159C18.8151 17.2758 18.8442 17.4201 18.8442 17.5657L20.2506 36.9686L29.3455 59.5069L26.2072 16.2124Z" fill="#FFCC99"/>
<path d="M45.9083 5.57659C45.9671 4.35515 46.4189 3.24912 47.1226 2.35193C46.2692 1.83807 45.2796 1.52618 44.2112 1.52618C41.1602 1.52618 38.6903 3.90861 38.545 6.9313L37.8662 21.9266L43.6416 55.642L45.9083 5.57659Z" fill="#FFCC99"/>
<path d="M25.3065 92.3127L9.09297 36.6389C8.94747 36.1456 8.88963 35.6798 8.88963 35.1866C8.88963 34.2152 9.17486 33.2727 9.68487 32.4621C8.1907 31.356 6.15711 31.0812 4.34487 31.9784C2.57234 32.8495 1.52621 34.6508 1.52621 36.5399C1.52621 37.0346 1.58433 37.499 1.7297 37.9936L17.9435 93.666V116.07H52.8119V114.715H25.3065V92.3127Z" fill="white"/>
<path d="M60.3086 93.666L78.5564 59.4079C79.5734 57.5188 79.4282 55.1954 78.1787 53.4519C77.7091 52.7773 77.119 52.2813 76.483 51.8924C76.3365 52.0793 76.1671 52.2359 76.0403 52.4462L68.4856 64.912L71.0908 51.6287C70.1392 52.0862 69.2846 52.7924 68.677 53.7995L61.1222 66.2653L70.0137 20.936C70.4086 18.8874 69.4973 16.8938 67.8559 15.7177C67.5439 16.1945 67.2977 16.7276 67.1489 17.3156L57.5891 56.1077L57.3969 28.3636L50.2258 57.4611L49.8771 7.13464C49.8579 5.09433 48.7524 3.33292 47.1225 2.35192C46.4187 3.24912 45.967 4.35515 45.9082 5.57659L43.6414 55.642L37.866 21.9266L36.2784 56.9967L29.3048 16.2879C29.0552 14.8453 28.2337 13.6609 27.1304 12.8846C26.5505 13.731 26.1783 14.723 26.1783 15.8056C26.1783 15.9211 26.2072 16.0667 26.2072 16.2123L29.3455 59.5069L20.2506 36.9686L21.9824 60.8602L11.4057 34.6507C11.0325 33.7329 10.4185 33.0048 9.68481 32.462C9.1748 33.2727 8.88957 34.2152 8.88957 35.1866C8.88957 35.6798 8.94741 36.1456 9.09291 36.6389L25.3065 92.3127V114.715H52.8119V102.384L60.3086 93.666Z" fill="#FFCC99"/>
<path d="M36.2784 56.9967L29.3048 16.2879C28.7817 13.2652 25.7889 11.3183 22.8251 12.074C20.4714 12.6552 18.8151 14.7477 18.8151 17.159C18.8151 17.2758 18.8442 17.42 18.8442 17.5657L21.9823 60.8602" stroke="#231F20" stroke-width="3.05068" stroke-miterlimit="10"/>
<path d="M50.226 57.4611L49.8773 7.13463C49.8483 4.02539 47.3204 1.52617 44.2113 1.52617C41.1603 1.52617 38.6903 3.9086 38.5451 6.93129L36.2786 56.9967" stroke="#231F20" stroke-width="3.05068" stroke-miterlimit="10"/>
<path d="M61.1222 66.2653L70.0138 20.936C70.4786 18.5247 69.2001 16.1134 66.9628 15.1255C66.2654 14.8343 65.5679 14.6886 64.8707 14.6886C62.5461 14.6886 60.3958 16.2577 59.7857 18.6703L50.2259 57.4611" stroke="#231F20" stroke-width="3.05068" stroke-miterlimit="10"/>
<path d="M21.9824 60.8602L11.4057 34.6508C10.2725 31.8616 7.04716 30.6416 4.34487 31.9784C2.57234 32.8495 1.52621 34.6508 1.52621 36.5399C1.52621 37.0346 1.58433 37.499 1.7297 37.9936L17.9435 93.666V116.07H52.8119V102.384L60.3086 93.666L78.5565 59.408C79.5735 57.5188 79.4282 55.1954 78.1788 53.4519C77.0455 51.8238 75.3021 51.0392 73.5587 51.0392C71.67 51.0392 69.7813 51.9694 68.6771 53.7995L61.1223 66.2654L47.3784 67.7767L39.6201 82.7115" stroke="#231F20" stroke-width="3.05068" stroke-miterlimit="10"/>
<rect x="6.27497" y="115.141" width="57.3144" height="24.4171" rx="5.42342" fill="white" stroke="#231F20" stroke-width="2.71171"/>
<rect x="13.0573" y="116.497" width="49.1763" height="21.7054" rx="3.38964" fill="#66CC99"/>
</svg>
