<svg width="32" height="32" viewBox="0 0 32 32" fill="none" xmlns="http://www.w3.org/2000/svg">
<path d="M25.3334 4L10.6667 4L10.6667 22.6667L25.3334 22.6667M25.3334 25.3333L10.6667 25.3333C9.9595 25.3333 9.28123 25.0524 8.78113 24.5523C8.28103 24.0522 8.00008 23.3739 8.00008 22.6667L8.00008 4C8.00008 3.29276 8.28103 2.61448 8.78113 2.11439C9.28123 1.61429 9.9595 1.33334 10.6667 1.33334L25.3334 1.33334C26.0407 1.33334 26.7189 1.61429 27.219 2.11439C27.7191 2.61448 28.0001 3.29276 28.0001 4L28.0001 22.6667C28.0001 23.3739 27.7191 24.0522 27.219 24.5523C26.7189 25.0524 26.0407 25.3333 25.3334 25.3333ZM21.3334 30.6667L5.33341 30.6667C4.62617 30.6667 3.94789 30.3857 3.4478 29.8856C2.9477 29.3855 2.66675 28.7072 2.66675 28L2.66675 9.33334H5.33341L5.33341 28L21.3334 28V30.6667Z" fill="white"/>
</svg>
